<svg width="82" height="82" viewBox="0 0 82 82" fill="none" xmlns="http://www.w3.org/2000/svg">
<path d="M82 41C82 63.6437 63.6437 82 41 82C18.3563 82 0 63.6437 0 41C0 18.3563 18.3563 0 41 0C63.6437 0 82 18.3563 82 41Z" fill="white"/>
<path fill-rule="evenodd" clip-rule="evenodd" d="M43 75C52.3888 75 60 67.3888 60 58C60 48.6112 52.3888 41 43 41V75Z" fill="#FFC75B"/>
<path fill-rule="evenodd" clip-rule="evenodd" d="M43 7.04342V74.9277C42.3382 74.9661 41.6714 74.9856 41 74.9856C22.2223 74.9856 7 59.7633 7 40.9856C7 22.5424 21.6848 7.52901 40 7L42 7C42.3346 7.00966 42.6679 7.02416 43 7.04342ZM43 41C33.6112 41 26 48.6112 26 58C26 67.3888 33.6112 75 43 75V41Z" fill="#DF6690"/>
</svg>
